<svg xmlns="http://www.w3.org/2000/svg" viewBox="0 0 165 72.36"><defs><style>.cls-1{isolation:isolate;}.cls-2{font-size:14.83px;}.cls-2,.cls-6,.cls-9{fill:#1d1d1b;}.cls-2,.cls-9{font-family:CenturySchoolbook-Bold, Century Schoolbook;font-weight:700;}.cls-3{fill:#fcc200;}.cls-4{fill:#12100b;}.cls-5{opacity:0.29;mix-blend-mode:multiply;}.cls-7{fill:none;}.cls-7,.cls-8{stroke:#1d1d1b;stroke-miterlimit:10;stroke-width:0.25px;}.cls-8{fill:#fff;}.cls-9{font-size:9.89px;}</style></defs><title>logo l&amp;apos;echiquier</title><g class="cls-1"><g id="Calque_5" data-name="Calque 5"><text class="cls-2" transform="translate(26.91 49.35)">L’ECHIQUIER </text><rect class="cls-3" x="35.57" y="54" width="93.86" height="1.51"/><rect class="cls-4" x="35.57" y="56.3" width="93.86" height="1.51"/><g class="cls-5"><path class="cls-6" d="M68.42,111,61.91,86.21s2.32,9.2,11,13.32l-1.1-8.85,6,6.52v2.68S85,93.08,88.14,80.65c0,0,1.15,8.93,10.15,19.23V97.13l6-6.45-1,8.79s7.52-2.61,11-13.32L108,111" transform="translate(-4.64 -79.99)"/><path class="cls-7" d="M68.42,111,61.91,86.21s2.32,9.2,11,13.32l-1.1-8.85,6,6.52v2.68S85,93.08,88.14,80.65c0,0,1.15,8.93,10.15,19.23V97.13l6-6.45-1,8.79s7.52-2.61,11-13.32L108,111" transform="translate(-4.64 -79.99)"/></g><path class="cls-3" d="M67.42,111,60.91,86.21s2.32,9.2,11,13.32l-1.1-8.85,6,6.52v2.68S84,93.08,87.14,80.65c0,0,1.15,8.93,10.15,19.23V97.13l6-6.45-1,8.79s7.52-2.61,11-13.32L107,111" transform="translate(-4.64 -79.99)"/><path class="cls-7" d="M67.42,111,60.91,86.21s2.32,9.2,11,13.32l-1.1-8.85,6,6.52v2.68S84,93.08,87.14,80.65c0,0,1.15,8.93,10.15,19.23V97.13l6-6.45-1,8.79s7.52-2.61,11-13.32L107,111" transform="translate(-4.64 -79.99)"/><polygon class="cls-8" points="65.98 30.95 63.17 20.99 67.49 23.67 68.32 28.54 73.05 28.54 72.57 24.01 77.86 17.83 78.82 28.41 86.03 28.54 86.92 17.83 92 24.08 91.66 28.61 96.33 28.47 96.95 23.74 101.27 20.85 98.73 30.95 65.98 30.95"/><text class="cls-9" transform="translate(68.86 68.93)">Paris</text><path class="cls-8" d="M70.79,110.93" transform="translate(-4.64 -79.99)"/><line class="cls-7" x1="62.67" y1="30.95" x2="66.06" y2="30.95"/><line class="cls-7" x1="102.47" y1="30.95" x2="98.89" y2="30.95"/></g></g></svg>